# xmcd
#
# Track frame offsets:
# 150
# 15075
# 29388
# 50195
# 64895
# 79193
# 94303
# 109423
# 129380
# 143685
#
# Disc length: 2108 seconds
#
# Revision: 0
# Processed by: cddbd v1.5.2PL0 Copyright (c) Steve Scherf et al.
# Submitted via: Axialis_AX_CDPlayer 2.6
#
DISCID=85083a0a
DTITLE=The Belamy Brothers - Rebels Without A Clue
DYEAR=1900
DGENRE=
TTITLE0=Rebels Without A Clue
TTITLE1=I'll Help You Hurt Him
TTITLE2=The Fountain OfMiddle Age
TTITLE3=Stayin' In Love
TTITLE4=Get Your Priorities In Line
TTITLE5=Big Love
TTITLE6=When The Music Meant Everything
TTITLE7=The Courthouse
TTITLE8=The Andy Griffith Show
TTITLE9=A Little Naive
EXTD=2012
EXTT0=
EXTT1=
EXTT2=
EXTT3=
EXTT4=
EXTT5=
EXTT6=
EXTT7=
EXTT8=
EXTT9=
PLAYORDER=
